<?xml version="1.0" encoding="UTF-8" standalone="no"?>
<!DOCTYPE svg PUBLIC "-//W3C//DTD SVG 1.1//EN" "http://www.w3.org/Graphics/SVG/1.1/DTD/svg11.dtd">
<svg width="612pt" height="792pt" viewBox="0 0 612 792" overflow="visible" version="1.1" xmlns="http://www.w3.org/2000/svg">
  <text x="301.244662784083" y="289.162917350151" font-family="Arial" font-size="5.040702">Wordrobe</text>
  <text x="301.244662784083" y="294.959724231239" font-family="Arial" font-size="5.040702">plywood 10мм</text>
  <text x="212.60182422745" y="289.162917350151" font-family="Arial" font-size="5.040702">Wordrobe</text>
  <text x="212.60182422745" y="294.959724231239" font-family="Arial" font-size="5.040702">plywood 18мм</text>
  <path d="M321.4731,381.2598 L321.4006,381.3323 L321.3281,381.2598 L321.4006,381.1873 z" stroke="#0000FF" stroke-width="0.24" fill-opacity="0" />
  <path d="M279.9027,308.2018 L279.9752,308.2743 L280.0476,308.2018 L279.9752,308.1293 z" stroke="#0000FF" stroke-width="0.24" fill-opacity="0" />
  <path d="M249.707,391.7724 L249.6345,391.8449 L249.5621,391.7724 L249.6345,391.7 z" stroke="#0000FF" stroke-width="0.24" fill-opacity="0" />
  <path d="M268.5853,391.7724 L268.5128,391.8449 L268.4403,391.7724 L268.5128,391.7 z" stroke="#0000FF" stroke-width="0.24" fill-opacity="0" />
  <path d="M268.5853,419.3073 L268.5128,419.3797 L268.4403,419.3073 L268.5128,419.2348 z" stroke="#0000FF" stroke-width="0.24" fill-opacity="0" />
  <path d="M249.707,419.3073 L249.6345,419.3797 L249.5621,419.3073 L249.6345,419.2348 z" stroke="#0000FF" stroke-width="0.24" fill-opacity="0" />
  <path d="M328.4278,381.2598 L328.5003,381.3323 L328.5727,381.2598 L328.5003,381.1873 z" stroke="#0000FF" stroke-width="0.24" fill-opacity="0" />
  <path d="M353.776,364.7548 L353.7036,364.8272 L353.6311,364.7548 L353.7036,364.6823 z" stroke="#0000FF" stroke-width="0.24" fill-opacity="0" />
  <path d="M325.182,381.2598 L325.2545,381.3323 L325.3269,381.2598 L325.2545,381.1873 z" stroke="#0000FF" stroke-width="0.24" fill-opacity="0" />
  <path d="M356.7779,364.7548 L356.8504,364.8272 L356.9229,364.7548 L356.8504,364.6823 z" stroke="#0000FF" stroke-width="0.24" fill-opacity="0" />
  <path d="M249.707,363.7545 L249.6345,363.827 L249.5621,363.7545 L249.6345,363.6821 z" stroke="#0000FF" stroke-width="0.24" fill-opacity="0" />
  <path d="M360.4098,364.7548 L360.3373,364.8272 L360.2648,364.7548 L360.3373,364.6823 z" stroke="#0000FF" stroke-width="0.24" fill-opacity="0" />
  <path d="M353.6311,380.1465 L353.7036,380.2189 L353.776,380.1465 L353.7036,380.074 z" stroke="#0000FF" stroke-width="0.24" fill-opacity="0" />
  <path d="M249.707,334.7705 L249.6345,334.843 L249.5621,334.7705 L249.6345,334.698 z" stroke="#0000FF" stroke-width="0.24" fill-opacity="0" />
  <path d="M261.0244,334.7705 L261.0969,334.843 L261.1694,334.7705 L261.0969,334.698 z" stroke="#0000FF" stroke-width="0.24" fill-opacity="0" />
  <path d="M325.3269,403.8671 L325.2545,403.9395 L325.182,403.8671 L325.2545,403.7946 z" stroke="#0000FF" stroke-width="0.24" fill-opacity="0" />
  <path d="M328.5727,403.8671 L328.5003,403.9395 L328.4278,403.8671 L328.5003,403.7946 z" stroke="#0000FF" stroke-width="0.24" fill-opacity="0" />
  <path d="M321.3281,366.0017 L321.4006,366.0741 L321.4731,366.0017 L321.4006,365.9292 z" stroke="#0000FF" stroke-width="0.24" fill-opacity="0" />
  <path d="M261.0244,391.7724 L261.0969,391.8449 L261.1694,391.7724 L261.0969,391.7 z" stroke="#0000FF" stroke-width="0.24" fill-opacity="0" />
  <path d="M350.625,381.1126 L350.5525,381.1851 L350.4801,381.1126 L350.5525,381.0402 z" stroke="#0000FF" stroke-width="0.24" fill-opacity="0" />
  <path d="M356.9229,419.1115 L356.8504,419.184 L356.7779,419.1115 L356.8504,419.0391 z" stroke="#0000FF" stroke-width="0.24" fill-opacity="0" />
  <path d="M356.7779,403.7198 L356.8504,403.7923 L356.9229,403.7198 L356.8504,403.6474 z" stroke="#0000FF" stroke-width="0.24" fill-opacity="0" />
  <path d="M350.4801,364.7548 L350.5525,364.8272 L350.625,364.7548 L350.5525,364.6823 z" stroke="#0000FF" stroke-width="0.24" fill-opacity="0" />
  <path d="M279.9027,334.7705 L279.9752,334.843 L280.0476,334.7705 L279.9752,334.698 z" stroke="#0000FF" stroke-width="0.24" fill-opacity="0" />
  <path d="M261.0244,308.2018 L261.0969,308.2743 L261.1694,308.2018 L261.0969,308.1293 z" stroke="#0000FF" stroke-width="0.24" fill-opacity="0" />
  <path d="M360.2648,419.1115 L360.3373,419.184 L360.4098,419.1115 L360.3373,419.0391 z" stroke="#0000FF" stroke-width="0.24" fill-opacity="0" />
  <path d="M350.625,419.1115 L350.5525,419.184 L350.4801,419.1115 L350.5525,419.0391 z" stroke="#0000FF" stroke-width="0.24" fill-opacity="0" />
  <path d="M321.4731,419.2588 L321.4006,419.3312 L321.3281,419.2588 L321.4006,419.1863 z" stroke="#0000FF" stroke-width="0.24" fill-opacity="0" />
  <path d="M268.5853,334.7705 L268.5128,334.843 L268.4403,334.7705 L268.5128,334.698 z" stroke="#0000FF" stroke-width="0.24" fill-opacity="0" />
  <path d="M279.9027,391.7724 L279.9752,391.8449 L280.0476,391.7724 L279.9752,391.7 z" stroke="#0000FF" stroke-width="0.24" fill-opacity="0" />
  <path d="M268.5853,308.2018 L268.5128,308.2743 L268.4403,308.2018 L268.5128,308.1293 z" stroke="#0000FF" stroke-width="0.24" fill-opacity="0" />
  <path d="M249.707,308.2018 L249.6345,308.2743 L249.5621,308.2018 L249.6345,308.1293 z" stroke="#0000FF" stroke-width="0.24" fill-opacity="0" />
  <path d="M331.8185,419.2588 L331.7461,419.3312 L331.6736,419.2588 L331.7461,419.1863 z" stroke="#0000FF" stroke-width="0.24" fill-opacity="0" />
  <path d="M331.6736,366.0017 L331.7461,366.0741 L331.8185,366.0017 L331.7461,365.9292 z" stroke="#0000FF" stroke-width="0.24" fill-opacity="0" />
  <path d="M268.5853,363.7545 L268.5128,363.827 L268.4403,363.7545 L268.5128,363.6821 z" stroke="#0000FF" stroke-width="0.24" fill-opacity="0" />
  <path d="M325.182,419.1252 L325.2545,419.1977 L325.3269,419.1252 L325.2545,419.0527 z" stroke="#0000FF" stroke-width="0.24" fill-opacity="0" />
  <path d="M328.5727,365.8681 L328.5003,365.9406 L328.4278,365.8681 L328.5003,365.7957 z" stroke="#0000FF" stroke-width="0.24" fill-opacity="0" />
  <path d="M261.0244,363.7545 L261.0969,363.827 L261.1694,363.7545 L261.0969,363.6821 z" stroke="#0000FF" stroke-width="0.24" fill-opacity="0" />
  <path d="M360.2648,380.1465 L360.3373,380.2189 L360.4098,380.1465 L360.3373,380.074 z" stroke="#0000FF" stroke-width="0.24" fill-opacity="0" />
  <path d="M360.4098,402.7537 L360.3373,402.8262 L360.2648,402.7537 L360.3373,402.6812 z" stroke="#0000FF" stroke-width="0.24" fill-opacity="0" />
  <path d="M321.3281,403.8671 L321.4006,403.9395 L321.4731,403.8671 L321.4006,403.7946 z" stroke="#0000FF" stroke-width="0.24" fill-opacity="0" />
  <path d="M279.9027,363.7545 L279.9752,363.827 L280.0476,363.7545 L279.9752,363.6821 z" stroke="#0000FF" stroke-width="0.24" fill-opacity="0" />
  <path d="M353.6311,419.1115 L353.7036,419.184 L353.776,419.1115 L353.7036,419.0391 z" stroke="#0000FF" stroke-width="0.24" fill-opacity="0" />
  <path d="M328.4278,419.1252 L328.5003,419.1977 L328.5727,419.1252 L328.5003,419.0527 z" stroke="#0000FF" stroke-width="0.24" fill-opacity="0" />
  <path d="M331.8185,381.2598 L331.7461,381.3323 L331.6736,381.2598 L331.7461,381.1873 z" stroke="#0000FF" stroke-width="0.24" fill-opacity="0" />
  <path d="M325.3269,365.8681 L325.2545,365.9406 L325.182,365.8681 L325.2545,365.7957 z" stroke="#0000FF" stroke-width="0.24" fill-opacity="0" />
  <path d="M353.776,402.7537 L353.7036,402.8262 L353.6311,402.7537 L353.7036,402.6812 z" stroke="#0000FF" stroke-width="0.24" fill-opacity="0" />
  <path d="M350.4801,403.7198 L350.5525,403.7923 L350.625,403.7198 L350.5525,403.6474 z" stroke="#0000FF" stroke-width="0.24" fill-opacity="0" />
  <path d="M261.0244,419.3073 L261.0969,419.3797 L261.1694,419.3073 L261.0969,419.2348 z" stroke="#0000FF" stroke-width="0.24" fill-opacity="0" />
  <path d="M279.9027,419.3073 L279.9752,419.3797 L280.0476,419.3073 L279.9752,419.2348 z" stroke="#0000FF" stroke-width="0.24" fill-opacity="0" />
  <path d="M331.6736,403.8671 L331.7461,403.9395 L331.8185,403.8671 L331.7461,403.7946 z" stroke="#0000FF" stroke-width="0.24" fill-opacity="0" />
  <path d="M356.9229,381.1126 L356.8504,381.1851 L356.7779,381.1126 L356.8504,381.0402 z" stroke="#0000FF" stroke-width="0.24" fill-opacity="0" />
  <path d="M359.6127,375.5965 L359.6127,419.6612 C359.6006,419.7801 359.7354,419.9148 359.8542,419.9027 L360.8204,419.9027 C360.9392,419.9148 361.0739,419.7801 361.0619,419.6612" stroke="#C80000" stroke-width="0.24" fill-opacity="0" />
  <path d="M359.3415,366.2603 C359.3294,366.1414 359.4641,366.0067 359.583,366.0187" stroke="#C80000" stroke-width="0.24" fill-opacity="0" />
  <path d="M322.3965,417.7533 C322.4085,417.8721 322.2738,418.0068 322.1549,417.9948" stroke="#C80000" stroke-width="0.24" fill-opacity="0" />
  <path d="M274.244,419.7903 L265.7903,419.7903 L265.7903,304.0957 C265.7783,303.9769 265.913,303.8421 266.0319,303.8542 L268.7395,303.8542 L268.7395,304.3456 C268.6783,304.9501 269.3635,305.6353 269.968,305.574 L278.52,305.574 C279.1245,305.6353 279.8098,304.9501 279.7485,304.3456 L279.7485,303.8542 L282.4561,303.8542 C282.575,303.8421 282.7097,303.9769 282.6977,304.0957 L282.6977,419.7903 z" stroke="#C80000" stroke-width="0.24" fill-opacity="0" />
  <path d="M322.8937,420.05 C323.0126,420.062 323.1473,419.9273 323.1353,419.8084" stroke="#C80000" stroke-width="0.24" fill-opacity="0" />
  <path d="M215.4351,372.8399 L214.952,372.8399 L214.952,381.2936 L215.4351,381.2936 L215.5075,381.3661 L215.4351,381.4385 L215.4351,385.5204 L244.9022,385.5204 L244.9022,381.4385 L244.8297,381.3661 L244.9022,381.2936 L245.3852,381.2936 L245.3852,372.8399 L244.9022,372.8399 L244.8297,372.7675 L244.9022,372.695 L244.9022,368.6131 L215.4351,368.6131 L215.4351,372.695 L215.5075,372.7675 z" stroke="#C80000" stroke-width="0.24" fill-opacity="0" />
  <path d="M359.583,374.4116 C359.4641,374.4237 359.3294,374.2889 359.3415,374.1701" stroke="#C80000" stroke-width="0.24" fill-opacity="0" />
  <path d="M323.5198,376.4683 C323.5078,376.5872 323.6425,376.7219 323.7614,376.7099" stroke="#C80000" stroke-width="0.24" fill-opacity="0" />
  <path d="M323.1353,408.6585 C323.1473,408.5397 323.0126,408.405 322.8937,408.417" stroke="#C80000" stroke-width="0.24" fill-opacity="0" />
  <path d="M332.2292,420.05 C332.348,420.062 332.4827,419.9273 332.4707,419.8084" stroke="#C80000" stroke-width="0.24" fill-opacity="0" />
  <path d="M324.5298,419.8084 C324.5178,419.9273 324.6525,420.062 324.7714,420.05" stroke="#C80000" stroke-width="0.24" fill-opacity="0" />
  <path d="M325.9791,365.3185 C325.9911,365.1996 325.8564,365.0648 325.7375,365.0769" stroke="#C80000" stroke-width="0.24" fill-opacity="0" />
  <path d="M324.5002,375.525 C324.3813,375.537 324.2466,375.4023 324.2586,375.2834" stroke="#C80000" stroke-width="0.24" fill-opacity="0" />
  <path d="M357.6047,409.4547 C357.7236,409.4427 357.8583,409.5774 357.8463,409.6962" stroke="#C80000" stroke-width="0.24" fill-opacity="0" />
  <path d="M356.1258,364.2051 L356.1258,419.6612 C356.1137,419.7801 356.2485,419.9148 356.3673,419.9027 L357.575,419.9027 L358.3435,419.9027 C358.4624,419.9148 358.5971,419.7801 358.5851,419.6612 L358.5851,408.5114 C358.5971,408.3925 358.4624,408.2578 358.3435,408.2698 L357.575,408.2698" stroke="#C80000" stroke-width="0.24" fill-opacity="0" />
  <path d="M357.8463,417.606 C357.8583,417.7249 357.7236,417.8596 357.6047,417.8476" stroke="#C80000" stroke-width="0.24" fill-opacity="0" />
  <path d="M354.1866,363.9636 L353.2205,363.9636 C353.1017,363.9515 352.9669,364.0862 352.979,364.2051 L352.979,419.6612 C352.9669,419.7801 353.1017,419.9148 353.2205,419.9027 L354.1866,419.9027 C354.3055,419.9148 354.4402,419.7801 354.4282,419.6612 L354.4282,364.2051 C354.4402,364.0862 354.3055,363.9515 354.1866,363.9636 z" stroke="#C80000" stroke-width="0.24" fill-opacity="0" />
  <path d="M350.0695,419.9027 L351.0356,419.9027 C351.1544,419.9148 351.2892,419.7801 351.2771,419.6612 L351.2771,364.2051 C351.2892,364.0862 351.1544,363.9515 351.0356,363.9636 L350.0695,363.9636 C349.9506,363.9515 349.8159,364.0862 349.8279,364.2051 L349.8279,419.6612 C349.8159,419.7801 349.9506,419.9148 350.0695,419.9027 z" stroke="#C80000" stroke-width="0.24" fill-opacity="0" />
  <path d="M340.72,361.5635 L340.7925,361.4911 L340.8649,361.5635 L340.8649,362.0466" stroke="#C80000" stroke-width="0.24" fill-opacity="0" />
  <path d="M324.2272,361.5635 L324.2997,361.4911 L324.3721,361.5635 L324.3721,362.0466" stroke="#C80000" stroke-width="0.24" fill-opacity="0" />
  <path d="M321.9326,361.5635 L324.2272,361.5635" stroke="#C80000" stroke-width="0.24" fill-opacity="0" />
  <path d="M307.7343,332.0964 L305.4398,332.0964" stroke="#C80000" stroke-width="0.24" fill-opacity="0" />
  <path d="M229.0674,404.8937 L216.9416,404.8937 L216.7524,404.9851 C216.4559,405.3745 215.8477,405.5789 215.3,405.57 L215.3,407.8646 L215.3725,407.9371 L215.3,408.0095 L214.8169,408.0095 L214.8169,416.4632 L215.3,416.4632 L215.3725,416.5356 L215.3,416.6081 L215.3,420.69 L244.7671,420.69 L244.7671,416.6081 L244.6946,416.5356 L244.7671,416.4632 L245.2502,416.4632 L245.2502,408.0095 L244.7671,408.0095 L244.6946,407.9371 L244.7671,407.8646 L244.7671,405.57 C244.2194,405.5789 243.6112,405.3745 243.3147,404.9851 L243.1255,404.8937 L230.9997,404.8937 C230.8808,404.8817 230.7461,405.0164 230.7582,405.1353 L230.7582,405.2526 L229.309,405.2526 L229.309,405.1353 C229.321,405.0164 229.1863,404.8817 229.0674,404.8937 z" stroke="#C80000" stroke-width="0.24" fill-opacity="0" />
  <path d="M320.676,419.8084 C320.6639,419.9273 320.7987,420.062 320.9175,420.05" stroke="#C80000" stroke-width="0.24" fill-opacity="0" />
  <path d="M328.0172,365.0769 C327.8983,365.0648 327.7636,365.1996 327.7757,365.3185" stroke="#C80000" stroke-width="0.24" fill-opacity="0" />
  <path d="M255.3657,419.7903 L263.8194,419.7903 L263.8194,304.0957 C263.8315,303.9769 263.6967,303.8421 263.5779,303.8542 L260.8702,303.8542 L260.8702,304.3456 C260.9315,304.9501 260.2462,305.6353 259.6418,305.574 L251.0897,305.574 C250.4852,305.6353 249.8,304.9501 249.8613,304.3456 L249.8613,303.8542 L247.1536,303.8542 C247.0347,303.8421 246.9,303.9769 246.912,304.0957 L246.912,419.7903 z" stroke="#C80000" stroke-width="0.24" fill-opacity="0" />
  <path d="M304.7635,347.7961 L304.7635,359.9219 L304.8549,360.1111 C305.2442,360.4076 305.4487,361.0158 305.4398,361.5635" stroke="#C80000" stroke-width="0.24" fill-opacity="0" />
  <path d="M307.7343,361.5635 L307.8068,361.4911 L307.8793,361.5635 L307.8793,362.0466" stroke="#C80000" stroke-width="0.24" fill-opacity="0" />
  <path d="M307.8793,331.6133 L307.8793,332.0964 L307.8068,332.1689 L307.7343,332.0964" stroke="#C80000" stroke-width="0.24" fill-opacity="0" />
  <path d="M305.1223,347.5546 L305.005,347.5546 C304.8862,347.5425 304.7514,347.6772 304.7635,347.7961" stroke="#C80000" stroke-width="0.24" fill-opacity="0" />
  <path d="M321.2563,347.7961 L321.2563,359.9219 L321.3477,360.1111 C321.7371,360.4076 321.9415,361.0158 321.9326,361.5635" stroke="#C80000" stroke-width="0.24" fill-opacity="0" />
  <path d="M229.0674,387.4888 L216.9416,387.4888 L216.7524,387.5802 C216.4559,387.9695 215.8477,388.174 215.3,388.1651 L215.3,390.4597 L215.3725,390.5321 L215.3,390.6046 L214.8169,390.6046 L214.8169,399.0582 L215.3,399.0582 L215.3725,399.1307 L215.3,399.2032 L215.3,403.2851 L244.7671,403.2851 L244.7671,399.2032 L244.6946,399.1307 L244.7671,399.0582 L245.2502,399.0582 L245.2502,390.6046 L244.7671,390.6046 L244.6946,390.5321 L244.7671,390.4597 L244.7671,388.1651 C244.2194,388.174 243.6112,387.9695 243.3147,387.5802 L243.1255,387.4888 L230.9997,387.4888 C230.8808,387.4767 230.7461,387.6115 230.7582,387.7303 L230.7582,387.8476 L229.309,387.8476 L229.309,387.7303 C229.321,387.6115 229.1863,387.4767 229.0674,387.4888 z" stroke="#C80000" stroke-width="0.24" fill-opacity="0" />
  <path d="M324.2272,332.0964 L321.9326,332.0964" stroke="#C80000" stroke-width="0.24" fill-opacity="0" />
  <path d="M337.7491,347.7961 L337.7491,359.9219 L337.8405,360.1111 C338.2299,360.4076 338.4344,361.0158 338.4254,361.5635" stroke="#C80000" stroke-width="0.24" fill-opacity="0" />
  <path d="M316.3329,362.0466 L316.3329,361.5635 L316.4054,361.4911 L316.4779,361.5635" stroke="#C80000" stroke-width="0.24" fill-opacity="0" />
  <path d="M338.4254,361.5635 L340.72,361.5635" stroke="#C80000" stroke-width="0.24" fill-opacity="0" />
  <path d="M305.4398,361.5635 L307.7343,361.5635" stroke="#C80000" stroke-width="0.24" fill-opacity="0" />
  <path d="M305.4398,332.0964 C305.4487,332.6441 305.2442,333.2523 304.8549,333.5488 L304.7635,333.738 L304.7635,345.8638 C304.7514,345.9827 304.8862,346.1174 305.005,346.1054 L305.1223,346.1054 L305.1223,347.5546" stroke="#C80000" stroke-width="0.24" fill-opacity="0" />
  <path d="M349.3186,362.0466 L349.3186,361.5635 L349.3911,361.4911 L349.4635,361.5635" stroke="#C80000" stroke-width="0.24" fill-opacity="0" />
  <path d="M332.8258,362.0466 L332.8258,361.5635 L332.8982,361.4911 L332.9707,361.5635" stroke="#C80000" stroke-width="0.24" fill-opacity="0" />
  <path d="M332.9707,332.0964 L332.8982,332.1689 L332.8258,332.0964 L332.8258,331.6133" stroke="#C80000" stroke-width="0.24" fill-opacity="0" />
  <path d="M349.4635,332.0964 L349.3911,332.1689 L349.3186,332.0964 L349.3186,331.6133" stroke="#C80000" stroke-width="0.24" fill-opacity="0" />
  <path d="M316.4779,332.0964 L316.4054,332.1689 L316.3329,332.0964 L316.3329,331.6133" stroke="#C80000" stroke-width="0.24" fill-opacity="0" />
  <path d="M321.6151,346.1054 L321.6151,347.5546" stroke="#C80000" stroke-width="0.24" fill-opacity="0" />
  <path d="M321.9326,332.0964 C321.9415,332.6441 321.7371,333.2523 321.3477,333.5488 L321.2563,333.738 L321.2563,345.8638 C321.2443,345.9827 321.379,346.1174 321.4979,346.1054 L321.6151,346.1054" stroke="#C80000" stroke-width="0.24" fill-opacity="0" />
  <path d="M321.6151,347.5546 L321.4979,347.5546 C321.379,347.5425 321.2443,347.6772 321.2563,347.7961" stroke="#C80000" stroke-width="0.24" fill-opacity="0" />
  <path d="M324.3721,331.6133 L324.3721,332.0964 L324.2997,332.1689 L324.2272,332.0964" stroke="#C80000" stroke-width="0.24" fill-opacity="0" />
  <path d="M338.4254,332.0964 C338.4344,332.6441 338.2299,333.2523 337.8405,333.5488 L337.7491,333.738 L337.7491,345.8638 C337.7371,345.9827 337.8718,346.1174 337.9907,346.1054 L338.108,346.1054" stroke="#C80000" stroke-width="0.24" fill-opacity="0" />
  <path d="M338.108,347.5546 L337.9907,347.5546 C337.8718,347.5425 337.7371,347.6772 337.7491,347.7961" stroke="#C80000" stroke-width="0.24" fill-opacity="0" />
  <path d="M338.108,346.1054 L338.108,347.5546" stroke="#C80000" stroke-width="0.24" fill-opacity="0" />
  <path d="M340.72,332.0964 L338.4254,332.0964" stroke="#C80000" stroke-width="0.24" fill-opacity="0" />
  <path d="M340.8649,331.6133 L340.8649,332.0964 L340.7925,332.1689 L340.72,332.0964" stroke="#C80000" stroke-width="0.24" fill-opacity="0" />
  <path d="M357.575,408.2698 L357.575,364.2051 C357.587,364.0862 357.4523,363.9515 357.3335,363.9636 L356.3673,363.9636 C356.2485,363.9515 356.1137,364.0862 356.1258,364.2051" stroke="#C80000" stroke-width="0.24" fill-opacity="0" />
  <path d="M324.2586,367.3736 C324.2466,367.2548 324.3813,367.12 324.5002,367.1321" stroke="#C80000" stroke-width="0.24" fill-opacity="0" />
  <path d="M328.9833,420.05 C329.1022,420.062 329.2369,419.9273 329.2249,419.8084" stroke="#C80000" stroke-width="0.24" fill-opacity="0" />
  <path d="M323.7614,365.0769 C323.6425,365.0648 323.5078,365.1996 323.5198,365.3185" stroke="#C80000" stroke-width="0.24" fill-opacity="0" />
  <path d="M325.7375,420.05 C325.8564,420.062 325.9911,419.9273 325.9791,419.8084" stroke="#C80000" stroke-width="0.24" fill-opacity="0" />
  <path d="M322.1252,365.3185 C322.1372,365.1996 322.0025,365.0648 321.8837,365.0769" stroke="#C80000" stroke-width="0.24" fill-opacity="0" />
  <path d="M332.4707,365.3185 C332.4827,365.1996 332.348,365.0648 332.2292,365.0769" stroke="#C80000" stroke-width="0.24" fill-opacity="0" />
  <path d="M331.0215,419.8084 C331.0094,419.9273 331.1442,420.062 331.263,420.05" stroke="#C80000" stroke-width="0.24" fill-opacity="0" />
  <path d="M361.0619,419.6612 L361.0619,364.2051 C361.0739,364.0862 360.9392,363.9515 360.8204,363.9636 L359.6127,363.9636 L358.8442,363.9636 C358.7253,363.9515 358.5906,364.0862 358.6027,364.2051 L358.6027,375.355 C358.5906,375.4738 358.7253,375.6086 358.8442,375.5965 L359.6127,375.5965" stroke="#C80000" stroke-width="0.24" fill-opacity="0" />
  <path d="M329.2249,365.3185 C329.2369,365.1996 329.1022,365.0648 328.9833,365.0769" stroke="#C80000" stroke-width="0.24" fill-opacity="0" />
  <path d="M322.1549,409.6019 C322.2738,409.5899 322.4085,409.7246 322.3965,409.8434" stroke="#C80000" stroke-width="0.24" fill-opacity="0" />
  <path d="M320.9175,365.0769 C320.7987,365.0648 320.6639,365.1996 320.676,365.3185" stroke="#C80000" stroke-width="0.24" fill-opacity="0" />
  <path d="M331.263,365.0769 C331.1442,365.0648 331.0094,365.1996 331.0215,365.3185" stroke="#C80000" stroke-width="0.24" fill-opacity="0" />
  <path d="M327.7757,419.8084 C327.7636,419.9273 327.8983,420.062 328.0172,420.05" stroke="#C80000" stroke-width="0.24" fill-opacity="0" />
  <path d="M251.3804,335.2536 L259.8341,335.2536 L259.8341,334.7705 L251.3804,334.7705 z" stroke="#C80000" stroke-width="0.24" fill-opacity="0" />
  <path d="M278.7124,349.3833 L270.2587,349.3833 L270.2587,348.9002 L278.7124,348.9002 z" stroke="#C80000" stroke-width="0.24" fill-opacity="0" />
  <path d="M251.3804,349.3833 L259.8341,349.3833 L259.8341,348.9002 L251.3804,348.9002 z" stroke="#C80000" stroke-width="0.24" fill-opacity="0" />
  <path d="M278.7124,308.9264 L270.2587,308.9264 L270.2587,307.9603 L278.7124,307.9603 z" stroke="#C80000" stroke-width="0.24" fill-opacity="0" />
  <path d="M251.3804,364.4792 L259.8341,364.4792 L259.8341,363.513 L251.3804,363.513 z" stroke="#C80000" stroke-width="0.24" fill-opacity="0" />
  <path d="M278.7124,321.1239 L270.2587,321.1239 L270.2587,320.6408 L278.7124,320.6408 z" stroke="#C80000" stroke-width="0.24" fill-opacity="0" />
  <path d="M278.7124,335.2536 L270.2587,335.2536 L270.2587,334.7705 L278.7124,334.7705 z" stroke="#C80000" stroke-width="0.24" fill-opacity="0" />
  <path d="M251.3804,308.9264 L259.8341,308.9264 L259.8341,307.9603 L251.3804,307.9603 z" stroke="#C80000" stroke-width="0.24" fill-opacity="0" />
  <path d="M278.7124,405.9022 L270.2587,405.9022 L270.2587,406.3852 L278.7124,406.3852 z" stroke="#C80000" stroke-width="0.24" fill-opacity="0" />
  <path d="M278.7124,377.6427 L270.2587,377.6427 L270.2587,378.1258 L278.7124,378.1258 z" stroke="#C80000" stroke-width="0.24" fill-opacity="0" />
  <path d="M251.3804,321.1239 L259.8341,321.1239 L259.8341,320.6408 L251.3804,320.6408 z" stroke="#C80000" stroke-width="0.24" fill-opacity="0" />
  <path d="M278.7124,364.4792 L270.2587,364.4792 L270.2587,363.513 L278.7124,363.513 z" stroke="#C80000" stroke-width="0.24" fill-opacity="0" />
  <path d="M278.7124,391.7724 L270.2587,391.7724 L270.2587,392.2555 L278.7124,392.2555 z" stroke="#C80000" stroke-width="0.24" fill-opacity="0" />
  <path d="M251.3804,405.9022 L259.8341,405.9022 L259.8341,406.3852 L251.3804,406.3852 z" stroke="#C80000" stroke-width="0.24" fill-opacity="0" />
  <path d="M251.3804,420.0319 L259.8341,420.0319 L259.8341,419.0657 L251.3804,419.0657 z" stroke="#C80000" stroke-width="0.24" fill-opacity="0" />
  <path d="M278.7124,420.0319 L270.2587,420.0319 L270.2587,419.0657 L278.7124,419.0657 z" stroke="#C80000" stroke-width="0.24" fill-opacity="0" />
  <path d="M251.3804,377.6427 L259.8341,377.6427 L259.8341,378.1258 L251.3804,378.1258 z" stroke="#C80000" stroke-width="0.24" fill-opacity="0" />
  <path d="M251.3804,391.7724 L259.8341,391.7724 L259.8341,392.2555 L251.3804,392.2555 z" stroke="#C80000" stroke-width="0.24" fill-opacity="0" />
  <path d="M205.8631,427.1873 L205.8631,279.7794 L401.1188,279.7794 L401.1188,427.1873 z" stroke="#7D26CD" stroke-width="0.24" fill-opacity="0" />
  <path d="M212.7467,422.2238 L212.7467,301.457 L284.4822,301.457 L284.4822,422.2238 z" stroke="#7D26CD" stroke-width="0.24" fill-opacity="0" />
  <path d="M301.3896,422.2238 L301.3896,301.457 L395.7809,301.457 L395.7809,422.2238 z" stroke="#7D26CD" stroke-width="0.24" fill-opacity="0" />
  <path d="M328.2588,366.5261 L328.7418,366.5261 L328.7418,376.1875 L328.2588,376.1875 z" stroke="#C80000" stroke-width="0.24" fill-opacity="0" />
  <path d="M360.5789,365.4128 L360.5789,375.0741 L360.0958,375.0741 L360.0958,374.4117" stroke="#C80000" stroke-width="0.24" fill-opacity="0" />
  <path d="M360.5789,407.8261 L360.5789,417.4874 L360.0958,417.4874 L360.0958,407.8261 z" stroke="#C80000" stroke-width="0.24" fill-opacity="0" />
  <path d="M360.5789,395.363 L360.5789,399.1406 L360.0958,399.1406 L360.0958,395.363 z" stroke="#C80000" stroke-width="0.24" fill-opacity="0" />
  <path d="M376.9548,384.7258 L377.4379,384.7258 L377.4379,388.5034 L376.9548,388.5034 L376.9548,396.3291 L377.4379,396.3291 L377.4379,400.1068 L376.9548,400.1068 L376.9548,408.7922 L377.4379,408.7922 L377.4379,418.4536 L376.9548,418.4536 L376.9548,419.9028 L363.429,419.9028 L363.429,418.4536 L362.9459,418.4536 L362.9459,408.7922 L363.429,408.7922 L363.429,400.1068 L362.9459,400.1068 L362.9459,396.3291 L363.429,396.3291 L363.429,388.5034 L362.9459,388.5034 L362.9459,384.7258 L363.429,384.7258 L363.429,376.0403 L362.9459,376.0403 L362.9459,366.3789 L363.429,366.3789 L363.429,363.9636 L376.9548,363.9636 L376.9548,366.3789 L377.4379,366.3789 L377.4379,376.0403 L376.9548,376.0403 z" stroke="#C80000" stroke-width="0.24" fill-opacity="0" />
  <path d="M378.9873,384.7258 L378.5042,384.7258 L378.5042,388.5034 L378.9873,388.5034 L378.9873,396.3291 L378.5042,396.3291 L378.5042,400.1068 L378.9873,400.1068 L378.9873,408.7922 L378.5042,408.7922 L378.5042,418.4536 L378.9873,418.4536 L378.9873,419.9028 L392.5132,419.9028 L392.5132,418.4536 L392.9962,418.4536 L392.9962,408.7922 L392.5132,408.7922 L392.5132,400.1068 L392.9962,400.1068 L392.9962,396.3291 L392.5132,396.3291 L392.5132,388.5034 L392.9962,388.5034 L392.9962,384.7258 L392.5132,384.7258 L392.5132,376.0403 L392.9962,376.0403 L392.9962,366.3789 L392.5132,366.3789 L392.5132,363.9636 L378.9873,363.9636 L378.9873,366.3789 L378.5042,366.3789 L378.5042,376.0403 L378.9873,376.0403 z" stroke="#C80000" stroke-width="0.24" fill-opacity="0" />
  <path d="M328.2588,384.873 L328.7418,384.873 L328.7418,388.6506 L328.2588,388.6506 z" stroke="#C80000" stroke-width="0.24" fill-opacity="0" />
  <path d="M360.5789,383.7596 L360.5789,387.5373 L360.0958,387.5373 L360.0958,383.7596 z" stroke="#C80000" stroke-width="0.24" fill-opacity="0" />
  <path d="M321.1591,418.6008 L321.1591,408.9395 L321.6422,408.9395 L321.6422,409.6019" stroke="#C80000" stroke-width="0.24" fill-opacity="0" />
  <path d="M321.6422,417.9948 L321.6422,418.6008 L321.1591,418.6008" stroke="#C80000" stroke-width="0.24" fill-opacity="0" />
  <path d="M321.1591,388.6506 L321.1591,384.873 L321.6422,384.873 L321.6422,388.6506 z" stroke="#C80000" stroke-width="0.24" fill-opacity="0" />
  <path d="M321.1591,400.254 L321.1591,396.4763 L321.6422,396.4763 L321.6422,400.254 z" stroke="#C80000" stroke-width="0.24" fill-opacity="0" />
  <path d="M321.1591,376.1875 L321.1591,366.5261 L321.6422,366.5261 L321.6422,376.1875 z" stroke="#C80000" stroke-width="0.24" fill-opacity="0" />
  <path d="M347.9914,400.254 L348.4744,400.254 L348.4744,396.4763 L347.9914,396.4763 L347.9914,388.6506 L348.4744,388.6506 L348.4744,384.873 L347.9914,384.873 L347.9914,376.1875 L348.4744,376.1875 L348.4744,366.5261 L347.9914,366.5261 L347.9914,365.0769 L334.4655,365.0769 L334.4655,366.5261 L333.9824,366.5261 L333.9824,376.1875 L334.4655,376.1875 L334.4655,384.873 L333.9824,384.873 L333.9824,388.6506 L334.4655,388.6506 L334.4655,396.4763 L333.9824,396.4763 L333.9824,400.254 L334.4655,400.254 L334.4655,408.9395 L333.9824,408.9395 L333.9824,418.6008 L334.4655,418.6008 L334.4655,420.05 L347.9914,420.05 L347.9914,418.6008 L348.4744,418.6008 L348.4744,408.9395 L347.9914,408.9395 z" stroke="#C80000" stroke-width="0.24" fill-opacity="0" />
  <path d="M331.9876,388.6506 L331.5046,388.6506 L331.5046,384.873 L331.9876,384.873 z" stroke="#C80000" stroke-width="0.24" fill-opacity="0" />
  <path d="M357.0919,417.8476 L357.0919,418.4536 L356.6089,418.4536" stroke="#C80000" stroke-width="0.24" fill-opacity="0" />
  <path d="M325.496,366.5261 L325.496,376.1875 L325.0129,376.1875 L325.0129,375.525" stroke="#C80000" stroke-width="0.24" fill-opacity="0" />
  <path d="M325.496,396.4763 L325.496,400.254 L325.0129,400.254 L325.0129,396.4763 z" stroke="#C80000" stroke-width="0.24" fill-opacity="0" />
  <path d="M356.6089,388.5034 L356.6089,384.7258 L357.0919,384.7258 L357.0919,388.5034 z" stroke="#C80000" stroke-width="0.24" fill-opacity="0" />
  <path d="M353.4621,407.8261 L353.9451,407.8261 L353.9451,417.4874 L353.4621,417.4874 z" stroke="#C80000" stroke-width="0.24" fill-opacity="0" />
  <path d="M353.4621,395.363 L353.9451,395.363 L353.9451,399.1406 L353.4621,399.1406 z" stroke="#C80000" stroke-width="0.24" fill-opacity="0" />
  <path d="M350.7941,400.1068 L350.311,400.1068 L350.311,396.3291 L350.7941,396.3291 z" stroke="#C80000" stroke-width="0.24" fill-opacity="0" />
  <path d="M350.7941,418.4536 L350.311,418.4536 L350.311,408.7922 L350.7941,408.7922 z" stroke="#C80000" stroke-width="0.24" fill-opacity="0" />
  <path d="M305.0126,400.254 L304.5295,400.254 L304.5295,396.4763 L305.0126,396.4763 L305.0126,388.6506 L304.5295,388.6506 L304.5295,384.873 L305.0126,384.873 L305.0126,376.1875 L304.5295,376.1875 L304.5295,366.5261 L305.0126,366.5261 L305.0126,365.0769 L318.5385,365.0769 L318.5385,366.5261 L319.0215,366.5261 L319.0215,376.1875 L318.5385,376.1875 L318.5385,384.873 L319.0215,384.873 L319.0215,388.6506 L318.5385,388.6506 L318.5385,396.4763 L319.0215,396.4763 L319.0215,400.254 L318.5385,400.254 L318.5385,408.9395 L319.0215,408.9395 L319.0215,418.6008 L318.5385,418.6008 L318.5385,420.05 L305.0126,420.05 L305.0126,418.6008 L304.5295,418.6008 L304.5295,408.9395 L305.0126,408.9395 z" stroke="#C80000" stroke-width="0.24" fill-opacity="0" />
  <path d="M350.7941,376.0403 L350.311,376.0403 L350.311,366.3789 L350.7941,366.3789 z" stroke="#C80000" stroke-width="0.24" fill-opacity="0" />
  <path d="M350.7941,388.5034 L350.311,388.5034 L350.311,384.7258 L350.7941,384.7258 z" stroke="#C80000" stroke-width="0.24" fill-opacity="0" />
  <path d="M328.2588,396.4763 L328.7418,396.4763 L328.7418,400.254 L328.2588,400.254 z" stroke="#C80000" stroke-width="0.24" fill-opacity="0" />
  <path d="M353.4621,383.7596 L353.9451,383.7596 L353.9451,387.5373 L353.4621,387.5373 z" stroke="#C80000" stroke-width="0.24" fill-opacity="0" />
  <path d="M353.4621,365.4128 L353.9451,365.4128 L353.9451,375.0741 L353.4621,375.0741 z" stroke="#C80000" stroke-width="0.24" fill-opacity="0" />
  <path d="M356.6089,376.0403 L356.6089,366.3789 L357.0919,366.3789 L357.0919,376.0403 z" stroke="#C80000" stroke-width="0.24" fill-opacity="0" />
  <path d="M356.6089,400.1068 L356.6089,396.3291 L357.0919,396.3291 L357.0919,400.1068 z" stroke="#C80000" stroke-width="0.24" fill-opacity="0" />
  <path d="M356.6089,418.4536 L356.6089,408.7922 L357.0919,408.7922 L357.0919,409.4547" stroke="#C80000" stroke-width="0.24" fill-opacity="0" />
  <path d="M325.496,408.9395 L325.496,418.6008 L325.0129,418.6008 L325.0129,408.9395 z" stroke="#C80000" stroke-width="0.24" fill-opacity="0" />
  <path d="M325.496,384.873 L325.496,388.6506 L325.0129,388.6506 L325.0129,384.873 z" stroke="#C80000" stroke-width="0.24" fill-opacity="0" />
  <path d="M325.0129,367.1321 L325.0129,366.5261 L325.496,366.5261" stroke="#C80000" stroke-width="0.24" fill-opacity="0" />
  <path d="M331.9876,376.1875 L331.5046,376.1875 L331.5046,366.5261 L331.9876,366.5261 z" stroke="#C80000" stroke-width="0.24" fill-opacity="0" />
  <path d="M331.9876,400.254 L331.5046,400.254 L331.5046,396.4763 L331.9876,396.4763 z" stroke="#C80000" stroke-width="0.24" fill-opacity="0" />
  <path d="M331.9876,418.6008 L331.5046,418.6008 L331.5046,408.9395 L331.9876,408.9395 z" stroke="#C80000" stroke-width="0.24" fill-opacity="0" />
  <path d="M328.2588,408.9395 L328.7418,408.9395 L328.7418,418.6008 L328.2588,418.6008 z" stroke="#C80000" stroke-width="0.24" fill-opacity="0" />
  <path d="M360.0958,366.0188 L360.0958,365.4128 L360.5789,365.4128" stroke="#C80000" stroke-width="0.24" fill-opacity="0" />
  <path d="M328.9834,365.0769 L328.0172,365.0769" stroke="#C80000" stroke-width="0.24" fill-opacity="0" />
  <path d="M320.676,365.3185 L320.676,419.8084" stroke="#C80000" stroke-width="0.24" fill-opacity="0" />
  <path d="M322.1252,420.05 L322.8937,420.05 L323.1353,408.6586" stroke="#C80000" stroke-width="0.24" fill-opacity="0" />
  <path d="M321.6422,409.6019 L322.1549,409.6019" stroke="#C80000" stroke-width="0.24" fill-opacity="0" />
  <path d="M328.0172,420.05 L328.9834,420.05" stroke="#C80000" stroke-width="0.24" fill-opacity="0" />
  <path d="M359.3415,374.1701 L359.3415,366.2603" stroke="#C80000" stroke-width="0.24" fill-opacity="0" />
  <path d="M322.8937,408.4171 L322.1252,408.4171" stroke="#C80000" stroke-width="0.24" fill-opacity="0" />
  <path d="M360.0958,374.4117 L359.583,374.4117" stroke="#C80000" stroke-width="0.24" fill-opacity="0" />
  <path d="M320.9175,420.05 L322.1252,420.05" stroke="#C80000" stroke-width="0.24" fill-opacity="0" />
  <path d="M322.1549,417.9948 L321.6422,417.9948" stroke="#C80000" stroke-width="0.24" fill-opacity="0" />
  <path d="M359.583,366.0188 L360.0958,366.0188" stroke="#C80000" stroke-width="0.24" fill-opacity="0" />
  <path d="M331.0215,365.3185 L331.0215,419.8084" stroke="#C80000" stroke-width="0.24" fill-opacity="0" />
  <path d="M332.4707,419.8084 L332.4707,365.3185" stroke="#C80000" stroke-width="0.24" fill-opacity="0" />
  <path d="M324.5299,376.7099 L324.5299,419.8084" stroke="#C80000" stroke-width="0.24" fill-opacity="0" />
  <path d="M324.5299,365.0769 L323.7614,365.0769" stroke="#C80000" stroke-width="0.24" fill-opacity="0" />
  <path d="M357.0919,409.4547 L357.6047,409.4547" stroke="#C80000" stroke-width="0.24" fill-opacity="0" />
  <path d="M353.5455,332.0964 L349.4636,332.0964" stroke="#C80000" stroke-width="0.24" fill-opacity="0" />
  <path d="M353.5455,361.5635 L353.5455,332.0964" stroke="#C80000" stroke-width="0.24" fill-opacity="0" />
  <path d="M337.0526,361.5635 L337.0526,332.0964" stroke="#C80000" stroke-width="0.24" fill-opacity="0" />
  <path d="M332.9707,361.5635 L337.0526,361.5635" stroke="#C80000" stroke-width="0.24" fill-opacity="0" />
  <path d="M307.8793,362.0466 L316.333,362.0466" stroke="#C80000" stroke-width="0.24" fill-opacity="0" />
  <path d="M320.5598,361.5635 L320.5598,332.0964" stroke="#C80000" stroke-width="0.24" fill-opacity="0" />
  <path d="M324.3721,362.0466 L332.8258,362.0466" stroke="#C80000" stroke-width="0.24" fill-opacity="0" />
  <path d="M337.0526,332.0964 L332.9707,332.0964" stroke="#C80000" stroke-width="0.24" fill-opacity="0" />
  <path d="M316.333,331.6134 L307.8793,331.6134" stroke="#C80000" stroke-width="0.24" fill-opacity="0" />
  <path d="M349.4636,361.5635 L353.5455,361.5635" stroke="#C80000" stroke-width="0.24" fill-opacity="0" />
  <path d="M340.865,362.0466 L349.3186,362.0466" stroke="#C80000" stroke-width="0.24" fill-opacity="0" />
  <path d="M332.8258,331.6134 L324.3721,331.6134" stroke="#C80000" stroke-width="0.24" fill-opacity="0" />
  <path d="M320.5598,332.0964 L316.4779,332.0964" stroke="#C80000" stroke-width="0.24" fill-opacity="0" />
  <path d="M349.3186,331.6134 L340.865,331.6134" stroke="#C80000" stroke-width="0.24" fill-opacity="0" />
  <path d="M357.8463,409.6963 L357.8463,417.6061" stroke="#C80000" stroke-width="0.24" fill-opacity="0" />
  <path d="M324.5002,367.1321 L325.0129,367.1321" stroke="#C80000" stroke-width="0.24" fill-opacity="0" />
  <path d="M324.2586,375.2834 L324.2586,367.3736" stroke="#C80000" stroke-width="0.24" fill-opacity="0" />
  <path d="M325.0129,375.525 L324.5002,375.525" stroke="#C80000" stroke-width="0.24" fill-opacity="0" />
  <path d="M323.5198,365.3185 L323.5198,376.4684" stroke="#C80000" stroke-width="0.24" fill-opacity="0" />
  <path d="M324.7714,420.05 L325.7375,420.05" stroke="#C80000" stroke-width="0.24" fill-opacity="0" />
  <path d="M332.2292,365.0769 L331.263,365.0769" stroke="#C80000" stroke-width="0.24" fill-opacity="0" />
  <path d="M325.9791,419.8084 L325.9791,365.3185" stroke="#C80000" stroke-width="0.24" fill-opacity="0" />
  <path d="M323.7614,376.7099 L324.5299,376.7099" stroke="#C80000" stroke-width="0.24" fill-opacity="0" />
  <path d="M325.7375,365.0769 L324.5299,365.0769" stroke="#C80000" stroke-width="0.24" fill-opacity="0" />
  <path d="M322.3965,409.8435 L322.3965,417.7533" stroke="#C80000" stroke-width="0.24" fill-opacity="0" />
  <path d="M327.7757,365.3185 L327.7757,419.8084" stroke="#C80000" stroke-width="0.24" fill-opacity="0" />
  <path d="M321.8837,365.0769 L320.9175,365.0769" stroke="#C80000" stroke-width="0.24" fill-opacity="0" />
  <path d="M322.1252,408.4171 L322.1252,365.3185" stroke="#C80000" stroke-width="0.24" fill-opacity="0" />
  <path d="M329.2249,419.8084 L329.2249,365.3185" stroke="#C80000" stroke-width="0.24" fill-opacity="0" />
  <path d="M357.6047,417.8476 L357.0919,417.8476" stroke="#C80000" stroke-width="0.24" fill-opacity="0" />
  <path d="M316.4779,361.5635 L320.5598,361.5635" stroke="#C80000" stroke-width="0.24" fill-opacity="0" />
  <path d="M331.263,420.05 L332.2292,420.05" stroke="#C80000" stroke-width="0.24" fill-opacity="0" />
</svg>